<svg width="28" height="18" viewBox="0 0 28 18" fill="none" xmlns="http://www.w3.org/2000/svg">
<path d="M17.6014 7.23426L14.2332 1.19652C14.048 0.865029 14.0857 0.576429 14.3462 0.330717C14.6068 0.0850054 14.9008 0.0582687 15.2282 0.250503L26.4113 7.52077C26.8553 7.80731 27.0752 8.20979 27.0708 8.7282C27.0664 9.24661 26.8398 9.64532 26.391 9.92432L15.0866 17.0046C14.7561 17.1904 14.4626 17.1582 14.2062 16.9081C13.9498 16.6581 13.917 16.3693 14.1078 16.042L17.5775 10.062L1.46971 9.92591C1.07024 9.92254 0.736314 9.78398 0.46791 9.51024C0.199508 9.23649 0.0674633 8.8998 0.0717791 8.50015C0.076095 8.10051 0.21428 7.76563 0.486337 7.49551C0.758394 7.22538 1.09414 7.09295 1.49359 7.09821L17.6014 7.23426Z" fill="white"/>
</svg>
