<svg width="28" height="18" viewBox="0 0 28 18" fill="none" xmlns="http://www.w3.org/2000/svg">
<path opacity="0.6" d="M25.6895 2.37656C26.4368 3.14531 27.0065 4.01719 27.3984 4.99219C27.7904 5.96719 27.9909 7.00312 28 8.1C28 8.42812 27.9909 8.82187 27.9727 9.28125C27.9544 9.74062 27.918 10.2375 27.8633 10.7719C27.8086 11.3062 27.722 11.8547 27.6035 12.4172C27.485 12.9797 27.3346 13.5375 27.1523 14.0906C26.8789 14.8969 26.5599 15.5531 26.1953 16.0594C25.8307 16.5656 25.4525 16.9641 25.0605 17.2547C24.6686 17.5453 24.2721 17.7422 23.8711 17.8453C23.4701 17.9484 23.0964 18 22.75 18C22.4492 18 22.1758 17.9484 21.9297 17.8453C21.6836 17.7422 21.4466 17.6016 21.2188 17.4234C20.9909 17.2453 20.7812 17.0531 20.5898 16.8469C20.3984 16.6406 20.2025 16.4156 20.002 16.1719C19.8105 15.9469 19.6237 15.7312 19.4414 15.525C19.2591 15.3187 19.0632 15.1359 18.8535 14.9766C18.6439 14.8172 18.4342 14.6812 18.2246 14.5687C18.015 14.4562 17.7689 14.4 17.4863 14.4H10.5137C10.2493 14.4094 10.0078 14.4656 9.78906 14.5687C9.57031 14.6719 9.35612 14.8031 9.14648 14.9625C8.93685 15.1219 8.74544 15.3094 8.57227 15.525C8.39909 15.7406 8.20768 15.9562 7.99805 16.1719C7.80664 16.3969 7.61523 16.6172 7.42383 16.8328C7.23242 17.0484 7.02279 17.2453 6.79492 17.4234C6.56706 17.6016 6.33008 17.7375 6.08398 17.8312C5.83789 17.925 5.5599 17.9812 5.25 18C4.90365 18 4.52995 17.9484 4.12891 17.8453C3.72786 17.7422 3.33138 17.55 2.93945 17.2687C2.54753 16.9875 2.16927 16.5891 1.80469 16.0734C1.4401 15.5578 1.12109 14.8969 0.847656 14.0906C0.665365 13.5469 0.519531 12.9937 0.410156 12.4312C0.300781 11.8687 0.214193 11.3156 0.150391 10.7719C0.0865885 10.2281 0.0455729 9.73125 0.0273438 9.28125C0.00911458 8.83125 0 8.4375 0 8.1C0 7.0125 0.195964 5.98125 0.587891 5.00625C0.979818 4.03125 1.55404 3.15469 2.31055 2.37656C3.04883 1.60781 3.89648 1.02187 4.85352 0.61875C5.81055 0.215625 6.81771 0.009375 7.875 0H20.125C21.1823 0 22.1849 0.201563 23.1328 0.604688C24.0807 1.00781 24.9329 1.59844 25.6895 2.37656ZM25.498 13.5C25.6712 13.0031 25.8079 12.4875 25.9082 11.9531C26.0085 11.4187 26.0814 10.9078 26.127 10.4203C26.1725 9.93281 26.2044 9.48281 26.2227 9.07031C26.2409 8.65781 26.25 8.33437 26.25 8.1C26.25 7.22812 26.0905 6.4125 25.7715 5.65312C25.4525 4.89375 25.015 4.22813 24.459 3.65625C23.903 3.08437 23.2559 2.63437 22.5176 2.30625C21.7793 1.97812 20.9818 1.80937 20.125 1.8H7.875C7.02734 1.8 6.23438 1.96406 5.49609 2.29219C4.75781 2.62031 4.11068 3.07031 3.55469 3.64219C2.9987 4.21406 2.5612 4.87969 2.24219 5.63906C1.92318 6.39844 1.75911 7.21875 1.75 8.1C1.75 8.34375 1.75456 8.66719 1.76367 9.07031C1.77279 9.47344 1.80469 9.91875 1.85938 10.4062C1.91406 10.8938 1.99154 11.4094 2.0918 11.9531C2.19206 12.4969 2.32878 13.0125 2.50195 13.5C2.72982 14.175 2.98047 14.6953 3.25391 15.0609C3.52734 15.4266 3.79167 15.6937 4.04688 15.8625C4.30208 16.0312 4.53906 16.1297 4.75781 16.1578C4.97656 16.1859 5.14062 16.2 5.25 16.2C5.45052 16.2 5.66927 16.0781 5.90625 15.8344C6.14323 15.5906 6.39844 15.3094 6.67188 14.9906C6.89062 14.7281 7.12305 14.4609 7.36914 14.1891C7.61523 13.9172 7.89323 13.6641 8.20312 13.4297C8.51302 13.1953 8.85482 13.0031 9.22852 12.8531C9.60221 12.7031 10.0169 12.6187 10.4727 12.6H17.5273C17.9831 12.6187 18.3978 12.7031 18.7715 12.8531C19.1452 13.0031 19.4824 13.1906 19.7832 13.4156C20.084 13.6406 20.362 13.8937 20.6172 14.175C20.8724 14.4562 21.1094 14.7281 21.3281 14.9906C21.5924 15.3 21.8431 15.5766 22.0801 15.8203C22.3171 16.0641 22.5404 16.1906 22.75 16.2C22.8594 16.2 23.0189 16.1859 23.2285 16.1578C23.4382 16.1297 23.6751 16.0312 23.9395 15.8625C24.2038 15.6937 24.4727 15.4266 24.7461 15.0609C25.0195 14.6953 25.2702 14.175 25.498 13.5ZM7 7.2H8.75V9H7V10.8H5.25V9H3.5V7.2H5.25V5.4H7V7.2ZM22.75 9C22.9961 9 23.224 9.04688 23.4336 9.14062C23.6432 9.23438 23.8255 9.36094 23.9805 9.52031C24.1354 9.67969 24.263 9.87187 24.3633 10.0969C24.4635 10.3219 24.5091 10.5562 24.5 10.8C24.5 11.0531 24.4544 11.2875 24.3633 11.5031C24.2721 11.7188 24.1491 11.9062 23.9941 12.0656C23.8392 12.225 23.6523 12.3562 23.4336 12.4594C23.2148 12.5625 22.987 12.6094 22.75 12.6C22.5039 12.6 22.276 12.5531 22.0664 12.4594C21.8568 12.3656 21.6745 12.2391 21.5195 12.0797C21.3646 11.9203 21.237 11.7281 21.1367 11.5031C21.0365 11.2781 20.9909 11.0437 21 10.8C21 10.5469 21.0456 10.3125 21.1367 10.0969C21.2279 9.88125 21.3509 9.69375 21.5059 9.53438C21.6608 9.375 21.8477 9.24375 22.0664 9.14062C22.2852 9.0375 22.513 8.99062 22.75 9ZM19.25 5.4C19.4961 5.4 19.724 5.44688 19.9336 5.54062C20.1432 5.63437 20.3255 5.76094 20.4805 5.92031C20.6354 6.07969 20.763 6.27187 20.8633 6.49687C20.9635 6.72187 21.0091 6.95625 21 7.2C21 7.45312 20.9544 7.6875 20.8633 7.90312C20.7721 8.11875 20.6491 8.30625 20.4941 8.46562C20.3392 8.625 20.1523 8.75625 19.9336 8.85938C19.7148 8.9625 19.487 9.00937 19.25 9C19.0039 9 18.776 8.95312 18.5664 8.85938C18.3568 8.76562 18.1745 8.63906 18.0195 8.47969C17.8646 8.32031 17.737 8.12813 17.6367 7.90312C17.5365 7.67812 17.4909 7.44375 17.5 7.2C17.5 6.94687 17.5456 6.7125 17.6367 6.49687C17.7279 6.28125 17.8509 6.09375 18.0059 5.93437C18.1608 5.775 18.3477 5.64375 18.5664 5.54062C18.7852 5.4375 19.013 5.39062 19.25 5.4Z" fill="white"/>
</svg>
