<svg width="15" height="16" viewBox="0 0 15 16" fill="none" xmlns="http://www.w3.org/2000/svg">
<g clip-path="url(#clip0_270_110495)">
<path d="M7.5 15.5001C11.6421 15.5001 15 12.3255 15 8.40946C15 4.49342 11.6421 1.31885 7.5 1.31885C3.35786 1.31885 0 4.49342 0 8.40946C0 12.3255 3.35786 15.5001 7.5 15.5001Z" fill="#E18A04"/>
<path d="M7.5 14.6812C11.6421 14.6812 15 11.5066 15 7.59061C15 3.67458 11.6421 0.5 7.5 0.5C3.35786 0.5 0 3.67458 0 7.59061C0 11.5066 3.35786 14.6812 7.5 14.6812Z" fill="#E4A020"/>
<path d="M7.5 0.878174C3.35736 0.878174 0 4.05227 0 7.96878C0 11.8853 3.35736 15.0594 7.5 15.0594C11.6426 15.0594 15 11.8853 15 7.96878C15 4.05227 11.6426 0.878174 7.5 0.878174ZM7.5 14.2042C3.8581 14.2042 0.904573 11.4131 0.904573 7.96878C0.904573 4.52451 3.8581 1.73337 7.5 1.73337C11.1419 1.73337 14.0954 4.52451 14.0954 7.96878C14.0954 11.4131 11.1431 14.2042 7.5 14.2042Z" fill="#E18A04"/>
<path d="M7.5 0.5C3.35736 0.5 0 3.67409 0 7.59061C0 11.5071 3.35736 14.6812 7.5 14.6812C11.6426 14.6812 15 11.5071 15 7.59061C15 3.67409 11.6426 0.5 7.5 0.5ZM7.5 13.826C3.8581 13.826 0.904573 11.0349 0.904573 7.59061C0.904573 4.14633 3.8581 1.3552 7.5 1.3552C11.1419 1.3552 14.0954 4.14633 14.0954 7.59061C14.0954 11.0349 11.1431 13.826 7.5 13.826Z" fill="url(#paint0_linear_270_110495)"/>
<g style="mix-blend-mode:overlay" opacity="0.15">
<path d="M7.50017 7.59061C10.276 7.59061 12.7002 6.1645 13.9962 4.04531C12.7002 1.92611 10.276 0.5 7.50017 0.5C4.72433 0.5 2.30012 1.92611 1.00415 4.04531C2.30137 6.1645 4.72433 7.59061 7.50017 7.59061Z" fill="white"/>
</g>
<path d="M6.59321 8.24398C6.18868 8.24398 5.81583 8.18062 5.47466 8.0539C5.13837 7.92231 4.8435 7.7371 4.59006 7.49828C4.3415 7.25946 4.14654 6.97922 4.0052 6.65755C3.86873 6.33587 3.8005 5.98252 3.8005 5.59749C3.8005 5.21245 3.86873 4.8591 4.0052 4.53743C4.14654 4.21576 4.34393 3.93551 4.59737 3.69669C4.85081 3.45787 5.14812 3.27511 5.48928 3.14839C5.83045 3.01679 6.20574 2.951 6.61514 2.951C7.06841 2.951 7.47537 3.02654 7.83603 3.17763C8.20157 3.32872 8.50862 3.54804 8.75719 3.8356L7.99687 4.53743C7.81167 4.34247 7.6094 4.1987 7.39008 4.10609C7.17076 4.00862 6.93194 3.95988 6.67363 3.95988C6.42506 3.95988 6.19843 3.99887 5.99373 4.07685C5.78902 4.15483 5.61113 4.26693 5.46004 4.41315C5.31383 4.55936 5.19929 4.73238 5.11644 4.93221C5.03845 5.13204 4.99946 5.3538 4.99946 5.59749C4.99946 5.8363 5.03845 6.05563 5.11644 6.25545C5.19929 6.45528 5.31383 6.63074 5.46004 6.78183C5.61113 6.92804 5.78659 7.04014 5.98641 7.11812C6.19112 7.1961 6.41531 7.2351 6.659 7.2351C6.89295 7.2351 7.11958 7.19854 7.3389 7.12543C7.5631 7.04745 7.77999 6.9183 7.98956 6.73796L8.66215 7.59332C8.38434 7.8029 8.06023 7.96373 7.68982 8.07583C7.32428 8.18793 6.95874 8.24398 6.59321 8.24398ZM7.58016 7.4398V5.51707H8.66215V7.59332L7.58016 7.4398Z" fill="black"/>
<path d="M6.59321 8.24398C6.18868 8.24398 5.81583 8.18062 5.47466 8.0539C5.13837 7.92231 4.8435 7.7371 4.59006 7.49828C4.3415 7.25946 4.14654 6.97922 4.0052 6.65755C3.86873 6.33587 3.8005 5.98252 3.8005 5.59749C3.8005 5.21245 3.86873 4.8591 4.0052 4.53743C4.14654 4.21576 4.34393 3.93551 4.59737 3.69669C4.85081 3.45787 5.14812 3.27511 5.48928 3.14839C5.83045 3.01679 6.20574 2.951 6.61514 2.951C7.06841 2.951 7.47537 3.02654 7.83603 3.17763C8.20157 3.32872 8.50862 3.54804 8.75719 3.8356L7.99687 4.53743C7.81167 4.34247 7.6094 4.1987 7.39008 4.10609C7.17076 4.00862 6.93194 3.95988 6.67363 3.95988C6.42506 3.95988 6.19843 3.99887 5.99373 4.07685C5.78902 4.15483 5.61113 4.26693 5.46004 4.41315C5.31383 4.55936 5.19929 4.73238 5.11644 4.93221C5.03845 5.13204 4.99946 5.3538 4.99946 5.59749C4.99946 5.8363 5.03845 6.05563 5.11644 6.25545C5.19929 6.45528 5.31383 6.63074 5.46004 6.78183C5.61113 6.92804 5.78659 7.04014 5.98641 7.11812C6.19112 7.1961 6.41531 7.2351 6.659 7.2351C6.89295 7.2351 7.11958 7.19854 7.3389 7.12543C7.5631 7.04745 7.77999 6.9183 7.98956 6.73796L8.66215 7.59332C8.38434 7.8029 8.06023 7.96373 7.68982 8.07583C7.32428 8.18793 6.95874 8.24398 6.59321 8.24398ZM7.58016 7.4398V5.51707H8.66215V7.59332L7.58016 7.4398Z" fill="#E18A04"/>
<path d="M6.35883 8.47835C5.9543 8.47835 5.58146 8.41499 5.24029 8.28827C4.90399 8.15668 4.60913 7.97148 4.35569 7.73266C4.10712 7.49384 3.91217 7.21359 3.77083 6.89192C3.63436 6.57025 3.56613 6.21689 3.56613 5.83186C3.56613 5.44683 3.63436 5.09348 3.77083 4.7718C3.91217 4.45013 4.10956 4.16988 4.363 3.93107C4.61644 3.69225 4.91374 3.50948 5.25491 3.38276C5.59608 3.25117 5.97136 3.18537 6.38076 3.18537C6.83403 3.18537 7.241 3.26091 7.60166 3.412C7.9672 3.56309 8.27425 3.78242 8.52281 4.06997L7.7625 4.7718C7.57729 4.57685 7.37503 4.43307 7.1557 4.34047C6.93638 4.24299 6.69756 4.19425 6.43925 4.19425C6.19068 4.19425 5.96405 4.23324 5.75935 4.31123C5.55465 4.38921 5.37675 4.50131 5.22567 4.64752C5.07945 4.79374 4.96492 4.96676 4.88206 5.16658C4.80408 5.36641 4.76509 5.58817 4.76509 5.83186C4.76509 6.07068 4.80408 6.29 4.88206 6.48983C4.96492 6.68966 5.07945 6.86511 5.22567 7.0162C5.37675 7.16242 5.55221 7.27452 5.75204 7.3525C5.95674 7.43048 6.18094 7.46947 6.42463 7.46947C6.65857 7.46947 6.88521 7.43292 7.10453 7.35981C7.32872 7.28183 7.54561 7.15267 7.75519 6.97234L8.42777 7.8277C8.14997 8.03727 7.82586 8.19811 7.45544 8.31021C7.08991 8.4223 6.72437 8.47835 6.35883 8.47835ZM7.34578 7.67417V5.75144H8.42777V7.8277L7.34578 7.67417Z" fill="black"/>
<path d="M6.35883 8.47835C5.9543 8.47835 5.58146 8.41499 5.24029 8.28827C4.90399 8.15668 4.60913 7.97148 4.35569 7.73266C4.10712 7.49384 3.91217 7.21359 3.77083 6.89192C3.63436 6.57025 3.56613 6.21689 3.56613 5.83186C3.56613 5.44683 3.63436 5.09348 3.77083 4.7718C3.91217 4.45013 4.10956 4.16988 4.363 3.93107C4.61644 3.69225 4.91374 3.50948 5.25491 3.38276C5.59608 3.25117 5.97136 3.18537 6.38076 3.18537C6.83403 3.18537 7.241 3.26091 7.60166 3.412C7.9672 3.56309 8.27425 3.78242 8.52281 4.06997L7.7625 4.7718C7.57729 4.57685 7.37503 4.43307 7.1557 4.34047C6.93638 4.24299 6.69756 4.19425 6.43925 4.19425C6.19068 4.19425 5.96405 4.23324 5.75935 4.31123C5.55465 4.38921 5.37675 4.50131 5.22567 4.64752C5.07945 4.79374 4.96492 4.96676 4.88206 5.16658C4.80408 5.36641 4.76509 5.58817 4.76509 5.83186C4.76509 6.07068 4.80408 6.29 4.88206 6.48983C4.96492 6.68966 5.07945 6.86511 5.22567 7.0162C5.37675 7.16242 5.55221 7.27452 5.75204 7.3525C5.95674 7.43048 6.18094 7.46947 6.42463 7.46947C6.65857 7.46947 6.88521 7.43292 7.10453 7.35981C7.32872 7.28183 7.54561 7.15267 7.75519 6.97234L8.42777 7.8277C8.14997 8.03727 7.82586 8.19811 7.45544 8.31021C7.08991 8.4223 6.72437 8.47835 6.35883 8.47835ZM7.34578 7.67417V5.75144H8.42777V7.8277L7.34578 7.67417Z" fill="url(#paint1_linear_270_110495)"/>
</g>
<defs>
<linearGradient id="paint0_linear_270_110495" x1="1.85885" y1="17.9094" x2="8.14678" y2="5.04119" gradientUnits="userSpaceOnUse">
<stop stop-color="#FFA100"/>
<stop offset="1" stop-color="#FFD800"/>
</linearGradient>
<linearGradient id="paint1_linear_270_110495" x1="4.94654" y1="22.9195" x2="16.025" y2="17.8602" gradientUnits="userSpaceOnUse">
<stop stop-color="#FFA100"/>
<stop offset="1" stop-color="#FFD800"/>
</linearGradient>
<clipPath id="clip0_270_110495">
<rect width="15" height="15" fill="white" transform="translate(0 0.5)"/>
</clipPath>
</defs>
</svg>
