<svg width="21" height="15" viewBox="0 0 21 15" fill="none" xmlns="http://www.w3.org/2000/svg">
<path fill-rule="evenodd" clip-rule="evenodd" d="M2.68605 0C1.97366 0 1.29046 0.280385 0.786725 0.779474C0.282993 1.27856 0 1.95547 0 2.66129V12.3387C0 13.0445 0.282993 13.7214 0.786725 14.2205C1.29046 14.7196 1.97366 15 2.68605 15H18.314C19.0263 15 19.7095 14.7196 20.2133 14.2205C20.717 13.7214 21 13.0445 21 12.3387V2.66129C21 1.95547 20.717 1.27856 20.2133 0.779474C19.7095 0.280385 19.0263 0 18.314 0H2.68605ZM6.03628 4.00258C5.87705 3.89963 5.68366 3.86206 5.49699 3.89779C5.31031 3.93352 5.14496 4.03976 5.0359 4.19406C4.92683 4.34837 4.88259 4.53864 4.91252 4.72467C4.94244 4.91069 5.0442 5.07791 5.19628 5.19097L10.08 8.57806C10.2031 8.66342 10.3497 8.7092 10.5 8.7092C10.6503 8.7092 10.7969 8.66342 10.92 8.57806L15.8037 5.19097C15.886 5.13779 15.9566 5.06876 16.0114 4.98799C16.0662 4.90722 16.104 4.81635 16.1226 4.72081C16.1413 4.62526 16.1403 4.52697 16.1198 4.43179C16.0994 4.33662 16.0598 4.24649 16.0034 4.16678C15.9471 4.08707 15.8751 4.01939 15.7919 3.96779C15.7086 3.91618 15.6157 3.88169 15.5187 3.86637C15.4217 3.85105 15.3226 3.85522 15.2272 3.87862C15.1319 3.90202 15.0423 3.94417 14.9637 4.00258L10.5 7.09839L6.03628 4.00258Z" fill="white"/>
</svg>
