<svg width="18" height="16" viewBox="0 0 18 16" fill="none" xmlns="http://www.w3.org/2000/svg">
<path d="M4.475 15.462C3.24033 15.462 2.186 15.025 1.312 14.151C0.438 13.277 0.000666667 12.2223 0 10.987C0 9.77167 0.424667 8.72967 1.274 7.861C2.12333 6.99233 3.15567 6.54467 4.371 6.518C4.499 6.518 4.62733 6.52767 4.756 6.547C4.884 6.56633 5.012 6.58867 5.14 6.614L1.846 0.000999928H6.616L9 4.77L11.385 0H16.154L12.884 6.545C13 6.519 13.119 6.49967 13.241 6.487C13.3623 6.47367 13.4873 6.467 13.616 6.467C14.84 6.49833 15.8767 6.94833 16.726 7.817C17.5753 8.68567 18 9.734 18 10.962C18 12.2133 17.563 13.2763 16.689 14.151C15.815 15.0257 14.752 15.4627 13.5 15.462C13.3113 15.462 13.1187 15.4513 12.922 15.43C12.7253 15.4093 12.5393 15.3693 12.364 15.31C13.152 14.9667 13.705 14.383 14.023 13.559C14.341 12.735 14.5 11.8693 14.5 10.962C14.5 9.42733 13.967 8.127 12.901 7.061C11.835 5.995 10.5347 5.462 9 5.462C7.46533 5.462 6.165 5.995 5.099 7.061C4.033 8.127 3.5 9.42733 3.5 10.962C3.5 11.8773 3.64667 12.758 3.94 13.604C4.23333 14.4507 4.79667 15.0193 5.63 15.31C5.442 15.3693 5.253 15.4093 5.063 15.43C4.873 15.4507 4.677 15.4613 4.475 15.462ZM9 15.462C7.75 15.462 6.68767 15.0247 5.813 14.15C4.93833 13.2753 4.50067 12.2127 4.5 10.962C4.49933 9.71133 4.937 8.649 5.813 7.775C6.689 6.901 7.75133 6.46333 9 6.462C10.2487 6.46067 11.3113 6.89833 12.188 7.775C13.0647 8.65167 13.502 9.714 13.5 10.962C13.498 12.21 13.0607 13.2727 12.188 14.15C11.3153 15.0273 10.2527 15.4647 9 15.462ZM7.439 13.251L9 12.062L10.562 13.251L9.977 11.321L11.539 10.208H9.609L9 8.174L8.39 10.208H6.462L8.024 11.322L7.439 13.251Z" fill="white"/>
</svg>
