<svg width="22" height="21" viewBox="0 0 22 21" fill="none" xmlns="http://www.w3.org/2000/svg">
<path opacity="0.6" d="M18.909 6.84142C18.5717 6.84142 18.2563 6.77724 17.963 6.64887C17.677 6.5205 17.424 6.34304 17.204 6.1165C16.984 5.88997 16.8117 5.62945 16.687 5.33495C16.5623 5.0329 16.5 4.7082 16.5 4.36084C16.5 4.02104 16.5623 3.70011 16.687 3.39806C16.8117 3.09601 16.984 2.83549 17.204 2.6165C17.424 2.38997 17.677 2.21251 17.963 2.08414C18.2563 1.94822 18.5717 1.88403 18.909 1.89159C19.239 1.88403 19.5507 1.94822 19.844 2.08414C20.1373 2.21251 20.394 2.38997 20.614 2.6165C20.8267 2.83549 20.999 3.09601 21.131 3.39806C21.2557 3.70011 21.318 4.02104 21.318 4.36084C21.318 4.7082 21.2557 5.0329 21.131 5.33495C21.0063 5.62945 20.834 5.88997 20.614 6.1165C20.394 6.34304 20.1373 6.5205 19.844 6.64887C19.5507 6.77724 19.239 6.84142 18.909 6.84142ZM18.909 3.30744C18.623 3.30744 18.37 3.40938 18.15 3.61327C17.9667 3.81715 17.875 4.06634 17.875 4.36084C17.875 4.65534 17.9667 4.90831 18.15 5.11974C18.37 5.30852 18.623 5.40291 18.909 5.40291C19.195 5.40291 19.437 5.30852 19.635 5.11974C19.8403 4.93096 19.943 4.67799 19.943 4.36084C19.943 4.06634 19.8403 3.81715 19.635 3.61327C19.437 3.40938 19.195 3.30744 18.909 3.30744ZM22 8.60841V13.8981C22 14.3738 21.912 14.8269 21.736 15.2573C21.5453 15.6877 21.2997 16.0615 20.999 16.3786C20.6837 16.7033 20.317 16.9563 19.899 17.1375C19.4663 17.3263 19.0227 17.4207 18.568 17.4207C18.2893 17.4207 18.0107 17.3792 17.732 17.2961C17.446 17.2433 17.1857 17.1489 16.951 17.0129C16.775 17.6095 16.5147 18.1532 16.17 18.644C15.8253 19.1348 15.422 19.5539 14.96 19.9013C14.498 20.2486 13.9883 20.5129 13.431 20.6942C12.8737 20.8981 12.2943 21 11.693 21C10.989 21 10.3253 20.8754 9.702 20.6262C9.10067 20.377 8.55067 20.0221 8.052 19.5615C7.568 19.1311 7.16833 18.6176 6.853 18.021C6.53033 17.4169 6.32133 16.76 6.226 16.0502H0.913C0.671 16.0502 0.454667 15.9558 0.264 15.767C0.088 15.5858 0 15.3668 0 15.11V5.66343C0 5.40669 0.088 5.18393 0.264 4.99515C0.454667 4.81392 0.671 4.7233 0.913 4.7233H8.8C8.58733 4.27023 8.481 3.79827 8.481 3.30744C8.481 2.84682 8.56533 2.41262 8.734 2.00485C8.89533 1.62729 9.12267 1.27994 9.416 0.962783C9.70933 0.668285 10.054 0.434196 10.45 0.260518C10.8167 0.0868393 11.2273 0 11.682 0C12.1293 0 12.5473 0.0868393 12.936 0.260518C13.3247 0.434196 13.6657 0.668285 13.959 0.962783C14.2523 1.27994 14.4797 1.62729 14.641 2.00485C14.8097 2.41262 14.894 2.84682 14.894 3.30744C14.894 3.76052 14.8097 4.19094 14.641 4.59871C14.4797 4.99892 14.2523 5.34628 13.959 5.64078C13.6657 5.94283 13.3247 6.18069 12.936 6.35437C12.5473 6.52805 12.1293 6.61489 11.682 6.61489C11.572 6.61489 11.4583 6.60734 11.341 6.59223C11.231 6.57713 11.1173 6.55825 11 6.5356V7.55502H20.966C21.252 7.55502 21.4977 7.65696 21.703 7.86084C21.901 8.06472 22 8.31392 22 8.60841ZM11.693 1.43851C11.4363 1.43851 11.2053 1.48004 11 1.56311C10.758 1.66127 10.5527 1.79719 10.384 1.97087C10.2227 2.14455 10.0943 2.34466 9.999 2.5712C9.90367 2.80529 9.856 3.0507 9.856 3.30744C9.856 3.57174 9.90367 3.81715 9.999 4.04369C10.0943 4.27023 10.2227 4.47033 10.384 4.64401C10.5527 4.81014 10.758 4.94606 11 5.05178C11.2053 5.14995 11.4363 5.19903 11.693 5.19903C11.9423 5.19903 12.177 5.14995 12.397 5.05178C12.617 4.94606 12.8113 4.81014 12.98 4.64401C13.1487 4.47033 13.2807 4.27023 13.376 4.04369C13.4787 3.81715 13.53 3.57174 13.53 3.30744C13.53 3.0507 13.4787 2.80529 13.376 2.5712C13.2807 2.34466 13.1487 2.14455 12.98 1.97087C12.8113 1.79719 12.617 1.66127 12.397 1.56311C12.177 1.48004 11.9423 1.43851 11.693 1.43851ZM6.358 8.43851H8.426V6.67152H2.574V8.43851H4.642V14.1019H6.358M15.818 15.3366V8.97087H11V15.11C11 15.3668 10.912 15.5858 10.736 15.767C10.5453 15.9558 10.329 16.0502 10.087 16.0502H7.612C7.70733 16.5561 7.87967 17.028 8.129 17.466C8.37833 17.8964 8.679 18.2702 9.031 18.5874C9.383 18.897 9.78633 19.1424 10.241 19.3236C10.6883 19.4822 11.1723 19.5615 11.693 19.5615C12.2577 19.5615 12.7893 19.4595 13.288 19.2557C13.7867 19.0291 14.2267 18.7233 14.608 18.3382C14.982 17.9531 15.2753 17.5038 15.488 16.9903C15.708 16.4768 15.818 15.9256 15.818 15.3366ZM20.625 13.8981V8.97087H17.193V15.4385C17.3763 15.6273 17.5853 15.7708 17.82 15.8689C18.04 15.9595 18.2893 16.0049 18.568 16.0049C18.854 16.0049 19.1217 15.9482 19.371 15.835C19.6203 15.7217 19.8367 15.5707 20.02 15.3819C20.2107 15.1931 20.3573 14.9666 20.46 14.7023C20.57 14.4455 20.625 14.1775 20.625 13.8981Z" fill="white"/>
</svg>
