<svg width="18" height="17" viewBox="0 0 18 17" fill="none" xmlns="http://www.w3.org/2000/svg">
<path d="M9 17C4.3 17 0.5 13.2 0.5 8.5C0.5 3.8 4.3 0 9 0C13.7 0 17.5 3.8 17.5 8.5C17.5 13.2 13.65 17 9 17ZM9 1C4.85 1 1.5 4.35 1.5 8.5C1.5 12.65 4.85 16 9 16C13.15 16 16.5 12.65 16.5 8.5C16.5 4.35 13.1 1 9 1Z" fill="white"/>
<path d="M4.10004 14.65L3.20004 14.25C3.45004 13.65 4.25004 13.3 5.10004 12.9C5.95004 12.5 7.00004 12.05 7.00004 11.5V10.75C6.70004 10.5 6.20004 9.95 6.10004 9.15C5.85004 8.9 5.45004 8.45 5.45004 7.85C5.45004 7.5 5.60004 7.2 5.70004 7C5.60004 6.6 5.50004 5.85 5.50004 5.25C5.50004 3.3 6.85004 2 9.00004 2C9.60004 2 10.35 2.15 10.75 2.6C11.7 2.8 12.5 3.9 12.5 5.25C12.5 6.1 12.35 6.8 12.25 7.15C12.35 7.3 12.45 7.55 12.45 7.85C12.45 8.5 12.1 8.95 11.8 9.15C11.7 9.95 11.25 10.45 10.95 10.7V11.5C10.95 11.95 11.85 12.3 12.65 12.6C13.6 12.95 14.6 13.35 14.95 14.15L14 14.5C13.85 14.1 13.05 13.8 12.3 13.55C11.2 13.15 9.95004 12.7 9.95004 11.55V10.25L10.2 10.1C10.2 10.1 10.8 9.7 10.8 8.9V8.55L11.1 8.4C11.15 8.4 11.4 8.25 11.4 7.85C11.4 7.75 11.3 7.6 11.25 7.55L11.05 7.35L11.15 7.1C11.15 7.1 11.4 6.3 11.4 5.3C11.4 4.35 10.85 3.65 10.4 3.65H10.1L9.95004 3.4C9.95004 3.2 9.60004 3 9.00004 3C7.45004 3 6.50004 3.85 6.50004 5.25C6.50004 5.9 6.75004 7 6.75004 7L6.80004 7.25L6.60004 7.5C6.55004 7.5 6.45004 7.65 6.45004 7.85C6.45004 8.1 6.75004 8.4 6.90004 8.5L7.10004 8.65V8.9C7.10004 9.65 7.75004 10.05 7.75004 10.1L8.00004 10.25V11.55C8.00004 12.75 6.70004 13.35 5.50004 13.85C4.95004 14.05 4.20004 14.4 4.10004 14.65Z" fill="white"/>
</svg>
