<svg width="77" height="16" viewBox="0 0 77 16" fill="none" xmlns="http://www.w3.org/2000/svg">
<path d="M23.8041 2.78782C23.6661 2.34331 23.3968 1.93808 23.0231 1.61247C22.6494 1.28687 22.1843 1.05227 21.6741 0.932029C19.8064 0.488281 12.2903 0.488281 12.2903 0.488281C12.2903 0.488281 4.7739 0.501748 2.9065 0.945495C2.39637 1.06575 1.9313 1.30036 1.55762 1.62597C1.18393 1.95157 0.914672 2.35679 0.776657 2.80128C0.211741 5.6927 -0.0074251 10.0982 0.792112 12.8738C0.930127 13.3183 1.19939 13.7236 1.57307 14.0492C1.94676 14.3748 2.41182 14.6094 2.92195 14.7296C4.7895 15.1734 12.3058 15.1734 12.3058 15.1734C12.3058 15.1734 19.822 15.1734 21.6896 14.7296C22.1997 14.6094 22.6648 14.3748 23.0385 14.0492C23.4122 13.7236 23.6814 13.3183 23.8194 12.8738C24.4151 9.97845 24.5988 5.5756 23.804 2.78795" fill="#FF0000"/>
<path d="M72.9803 4.66217C73.8018 4.66217 74.4218 4.79818 74.8559 5.05671C75.2899 5.31533 75.6 5.72363 75.786 6.28161C75.972 6.83955 76.0495 7.60152 76.0495 8.58138V10.1737H72.0657V10.6635L72.1278 12.0108C72.1742 12.3102 72.2518 12.528 72.3757 12.664C72.4999 12.8001 72.7012 12.8681 72.9648 12.8681C73.3214 12.8681 73.5694 12.7458 73.6933 12.5009C73.8329 12.2558 73.8948 11.8475 73.9103 11.2896L75.972 11.3985C75.9875 11.4801 75.9875 11.589 75.9875 11.725C75.9875 12.5824 75.7239 13.2221 75.1814 13.6439C74.6389 14.0657 73.8948 14.2834 72.9182 14.2834C71.7402 14.2834 70.9187 13.9569 70.4536 13.3173C69.9887 12.6776 69.7406 11.6705 69.7406 10.3233V8.67665C69.7932 6.36325 70.2567 4.66892 72.9803 4.66217ZM44.3186 4.83907V11.657C44.3186 12.0653 44.3651 12.3647 44.4736 12.5416C44.6937 12.9199 45.2642 12.8232 45.5742 12.6369C45.7531 12.5306 45.8973 12.3852 45.9927 12.2151V4.83894H48.3644V14.1337H46.5042L46.3027 12.9905H46.2563C45.7448 13.8479 44.9851 14.2833 43.9776 14.2833C42.4268 14.2799 42.0473 13.299 41.957 12.3028L41.9511 12.2326C41.9399 12.0817 41.9334 11.9306 41.9314 11.7794V4.83907H44.3186ZM56.5491 4.83907V11.657C56.5491 12.0653 56.5955 12.3647 56.704 12.5416C56.9243 12.9199 57.4946 12.8232 57.8046 12.6369C57.9835 12.5306 58.1278 12.3852 58.2231 12.2151V4.83894H60.5948V14.1337H58.7346L58.5331 12.9905H58.4867C57.9752 13.8479 57.2155 14.2833 56.208 14.2833C54.6573 14.2799 54.2778 13.299 54.1875 12.3028L54.1816 12.2326C54.1704 12.0817 54.1638 11.9306 54.1619 11.7794V4.83907H56.5491ZM37.436 4.66217C38.2111 4.66217 38.8466 4.79818 39.3117 5.08397C39.7766 5.36975 40.1332 5.80531 40.3502 6.404C40.5672 7.00282 40.6758 7.80567 40.6758 8.79916V10.1463C40.6758 11.1398 40.5672 11.9292 40.3502 12.5279C40.1332 13.1268 39.7922 13.5622 39.3117 13.848C38.8313 14.1202 38.1801 14.2698 37.3741 14.2698C36.5369 14.2834 35.8858 14.1338 35.4054 13.8616C34.9249 13.5759 34.5837 13.1403 34.3824 12.5416C34.1808 11.9428 34.0878 11.1534 34.0878 10.1601V8.81266C34.0878 7.81916 34.1963 7.00269 34.4288 6.40387C34.6614 5.79155 35.0178 5.356 35.5139 5.08397C36.0099 4.81168 36.6454 4.66204 37.436 4.66204M64.3152 0.93335V5.83243H64.3307C64.5477 5.47864 64.8267 5.19286 65.2143 4.97508C65.5762 4.76153 66.0026 4.64782 66.4388 4.64854C67.0123 4.64854 67.4464 4.78456 67.7719 5.04309C68.0974 5.31537 68.33 5.73717 68.4694 6.32237C68.6046 6.88926 68.6815 7.67329 68.6862 8.66198L68.6864 8.75841V10.2281C68.6864 11.6025 68.4849 12.6232 68.1128 13.2764C67.7255 13.9296 67.1364 14.2563 66.3302 14.2563C65.8808 14.2563 65.4777 14.1611 65.1058 13.9842C64.7768 13.8158 64.5041 13.5744 64.3149 13.2844L64.2841 13.2356H64.2377L63.9896 14.1202H62.0209V0.933479L64.3152 0.93335ZM54.8283 1.40966V3.09698H52.4722V14.1337H50.1471V3.09711H47.7754V1.40979L54.8283 1.40966ZM29.2668 1.40966L29.2683 1.41485C29.2909 1.50323 29.6043 2.72644 29.9491 4.1516L29.9763 4.26451L30.0174 4.43518L30.0449 4.54978L30.0586 4.60727L30.0861 4.72252L30.0998 4.78027L30.1272 4.89591L30.1671 5.06502C30.3999 6.0519 30.6221 7.04163 30.755 7.75129H30.8171C30.9444 7.1147 31.1294 6.30004 31.3266 5.46826L31.3783 5.251C31.4042 5.14215 31.4303 5.03348 31.4567 4.92498L31.4972 4.75665C31.7649 3.65438 32.0408 2.55361 32.3246 1.45443L32.329 1.43691L32.3361 1.40966H34.7078L31.964 9.99681V14.1202H29.6234V10.0103H29.6079L26.8951 1.40953L29.2668 1.40966ZM37.3894 6.10459C37.0639 6.10459 36.8469 6.25436 36.7075 6.5674C36.5681 6.88044 36.506 7.35661 36.506 8.02357V10.9222C36.506 11.6026 36.5679 12.1061 36.692 12.4056C36.8161 12.705 37.0485 12.8546 37.3894 12.8546C37.715 12.8546 37.9475 12.705 38.0871 12.4056C38.2266 12.1061 38.2886 11.6026 38.2886 10.9222V8.02344C38.2886 7.35661 38.2265 6.86668 38.0871 6.56727C37.9475 6.25436 37.715 6.10459 37.3894 6.10459ZM64.7337 6.37687C64.5447 6.53002 64.4104 6.71886 64.3304 6.95493L64.3152 7.00282V12.2829C64.5073 12.5687 64.7802 12.7593 65.2607 12.7729C65.5086 12.7729 65.7102 12.6912 65.8653 12.528C66.0202 12.3647 66.1287 12.0925 66.1907 11.7114C66.2503 11.3457 66.2813 10.8419 66.2837 10.2002V8.90805C66.2837 8.17321 66.2526 7.61527 66.2062 7.2206C66.1441 6.82593 66.0668 6.54014 65.9273 6.37687C65.6575 6.03658 65.0747 6.04073 64.7337 6.37687ZM72.9339 6.06384C72.6703 6.07742 72.4842 6.14547 72.3757 6.26799C72.2518 6.404 72.1742 6.60815 72.1278 6.90756C72.0821 7.20087 72.0664 8.22617 72.0657 8.26718V8.9353H73.8018V8.34609V8.35738C73.8008 8.56334 73.7959 8.23785 73.7853 7.83824L73.7838 7.78451C73.774 7.43332 73.7598 7.04176 73.7399 6.90756C73.6933 6.59452 73.6157 6.37675 73.4918 6.25436C73.3678 6.13184 73.1818 6.06384 72.9338 6.06384" fill="white"/>
<path d="M8.97424 11.6134L16.6546 7.83094L8.97424 4.04834V11.6134Z" fill="white"/>
</svg>
